<?xml version="1.0" encoding="UTF-8" standalone="no"?>
<svg
   version="1.1"
   viewBox="-5 -10 81.25 53.125"
   id="svg2"
   sodipodi:docname="logo.svg"
   width="81.25"
   height="53.125"
   inkscape:version="1.4.4 (dcaf3e7d9e, 2026-05-05)"
   xmlns:inkscape="http://www.inkscape.org/namespaces/inkscape"
   xmlns:sodipodi="http://sodipodi.sourceforge.net/DTD/sodipodi-0.dtd"
   xmlns="http://www.w3.org/2000/svg"
   xmlns:svg="http://www.w3.org/2000/svg">
  <defs
     id="defs2" />
  <sodipodi:namedview
     id="namedview2"
     pagecolor="#ffffff"
     bordercolor="#000000"
     borderopacity="0.25"
     inkscape:showpageshadow="2"
     inkscape:pageopacity="0.0"
     inkscape:pagecheckerboard="0"
     inkscape:deskcolor="#d1d1d1"
     inkscape:zoom="5.9703704"
     inkscape:cx="40.533499"
     inkscape:cy="35.676178"
     inkscape:window-width="1920"
     inkscape:window-height="1011"
     inkscape:window-x="0"
     inkscape:window-y="0"
     inkscape:window-maximized="1"
     inkscape:current-layer="svg2" />
  <path
     d="m 49.6875,43.125 c -4.3125,0 -7.8125,-3.5 -7.8125,-7.8125 v -37.5 c 0,-0.875 -0.6875,-1.5625 -1.5625,-1.5625 -0.875,0 -1.5625,0.6875 -1.5625,1.5625 v 34.375 C 38.75,36.5 35.25,40 30.9375,40 26.625,40 23.125,36.5 23.125,32.1875 V 4.0625 C 23.125,3.1875 22.4375,2.5 21.5625,2.5 20.6875,2.5 20,3.1875 20,4.0625 v 31.25 c 0,4.3125 -3.5,7.8125 -7.8125,7.8125 -4.3125,0 -7.8125,-3.5 -7.8125,-7.8125 v -15.625 c 0,-0.875 -0.6875,-1.5625 -1.5625,-1.5625 -0.875,0 -1.5625,0.6875 -1.5625,1.5625 v 10.938 c 0,1.7188 -1.4062,3.125 -3.125,3.125 -1.7188,0 -3.125,-1.4062 -3.125,-3.125 v -10.938 c 0,-4.3125 3.5,-7.8125 7.8125,-7.8125 4.3125,0 7.8125,3.5 7.8125,7.8125 v 15.625 c 0,0.875 0.6875,1.5625 1.5625,1.5625 0.875,0 1.5625,-0.6875 1.5625,-1.5625 v -31.25 c 0,-4.3125 3.5,-7.8125 7.8125,-7.8125 4.3125,0 7.8125,3.5 7.8125,7.8125 v 28.125 c 0,0.875 0.6875,1.5625 1.5625,1.5625 0.875,0 1.5625,-0.6875 1.5625,-1.5625 V -2.1875 C 32.5,-6.5 36,-10 40.3125,-10 c 4.3125,0 7.8125,3.5 7.8125,7.8125 v 37.5 c 0,0.875 0.6875,1.5625 1.5625,1.5625 0.875,0 1.5625,-0.6875 1.5625,-1.5625 v -25 C 51.25,6 54.75,2.5 59.0625,2.5 63.375,2.5 66.875,6 66.875,10.3125 v 18.75 c 0,0.875 0.6875,1.5625 1.5625,1.5625 0.875,0 1.5625,-0.6875 1.5625,-1.5625 v -17.188 c 0,-1.7188 1.4062,-3.125 3.125,-3.125 1.7188,0 3.125,1.4062 3.125,3.125 v 17.188 c 0,4.3125 -3.5,7.8125 -7.8125,7.8125 -4.3125,0 -7.8125,-3.5 -7.8125,-7.8125 v -18.75 C 60.625,9.4375 59.9375,8.75 59.0625,8.75 58.1875,8.75 57.5,9.4375 57.5,10.3125 v 25 c 0,4.3125 -3.5,7.8125 -7.8125,7.8125 z"
     id="path1"
     style="fill:#f92a53;fill-opacity:1" />
</svg>
